<!DOCTYPE svg PUBLIC "-//W3C//DTD SVG 1.1//EN" "http://www.w3.org/Graphics/SVG/1.1/DTD/svg11.dtd">

<!-- Uploaded to: SVG Repo, www.svgrepo.com, Transformed by: SVG Repo Mixer Tools -->
<svg width="30px" height="30px" viewBox="0 0 103.80 103.80" xmlns="http://www.w3.org/2000/svg" fill="#000000">

<g id="SVGRepo_bgCarrier" stroke-width="0"/>

<g id="SVGRepo_tracerCarrier" stroke-linecap="round" stroke-linejoin="round"/>

<g id="SVGRepo_iconCarrier"> <g id="Group_2" data-name="Group 2" transform="translate(-472 -231.9)"> <path id="Path_47" data-name="Path 47" d="M522.1,246.8H499.3c-11.6,0-21.1,7.6-21.1,15.2" fill="none" stroke="#33363F" stroke-linecap="round" stroke-miterlimit="10" stroke-width="7.888800000000001"/> <line id="Line_22" data-name="Line 22" y1="22.7" transform="translate(551 255.1)" fill="none" stroke="#33363F" stroke-linecap="round" stroke-miterlimit="10" stroke-width="7.888800000000001"/> <path id="Path_48" data-name="Path 48" d="M532.6,233.9H509.8c-11.6,0-21.1,6.7-21.1,15" fill="none" stroke="#33363F" stroke-linecap="round" stroke-miterlimit="10" stroke-width="7.888800000000001"/> <path id="Path_49" data-name="Path 49" d="M534.7,256.7H490.3A16.3,16.3,0,0,0,474,273v44.4a16.3,16.3,0,0,0,16.3,16.3h44.4A16.3,16.3,0,0,0,551,317.4V273A16.3,16.3,0,0,0,534.7,256.7Z" fill="none" stroke="#33363F" stroke-linecap="round" stroke-miterlimit="10" stroke-width="7.888800000000001"/> <path id="Path_50" data-name="Path 50" d="M540.7,242.3a3.567,3.567,0,0,1,4.2,4.2,3.518,3.518,0,0,1-2.8,2.8,3.567,3.567,0,0,1-4.2-4.2A3.518,3.518,0,0,1,540.7,242.3Z" fill="#33363F" stroke="#33363F" stroke-linecap="round" stroke-linejoin="round" stroke-miterlimit="10" stroke-width="7.888800000000001"/> <path id="Path_51" data-name="Path 51" d="M551.2,233.5a3.567,3.567,0,0,1,4.2,4.2,3.518,3.518,0,0,1-2.8,2.8,3.567,3.567,0,0,1-4.2-4.2A3.651,3.651,0,0,1,551.2,233.5Z" fill="#33363F" stroke="#33363F" stroke-linecap="round" stroke-linejoin="round" stroke-miterlimit="10" stroke-width="7.888800000000001"/> <line id="Line_23" data-name="Line 23" x2="23.1" transform="translate(491.1 278.8)" fill="none" stroke="#33363F" stroke-linecap="round" stroke-miterlimit="10" stroke-width="7.888800000000001"/> <line id="Line_24" data-name="Line 24" x2="36.1" transform="translate(491.1 295.2)" fill="none" stroke="#33363F" stroke-linecap="round" stroke-miterlimit="10" stroke-width="7.888800000000001"/> </g> </g>

</svg>